<svg width="300" height="300" viewBox="0 0 300 300" fill="none" xmlns="http://www.w3.org/2000/svg">
<path d="M42.75 55.3381C42.75 51.8153 43.2188 48.572 44.1562 45.608C45.1032 42.6439 46.5473 39.8977 48.4886 37.3693H54.2699C53.5313 38.3068 52.8447 39.4527 52.2102 40.8068C51.5758 42.1515 51.0218 43.6288 50.5483 45.2386C50.0748 46.8485 49.7055 48.5152 49.4403 50.2386C49.1752 51.9527 49.0426 53.6525 49.0426 55.3381C49.0426 57.5824 49.2699 59.8504 49.7244 62.142C50.1884 64.4242 50.8134 66.5455 51.5994 68.5057C52.3949 70.4659 53.285 72.071 54.2699 73.321H48.4886C46.5473 70.7926 45.1032 68.0464 44.1562 65.0824C43.2188 62.1184 42.75 58.8703 42.75 55.3381ZM67.9808 55.3381C67.9808 58.8703 67.5073 62.1184 66.5604 65.0824C65.6229 68.0464 64.1835 70.7926 62.2422 73.321H56.4609C57.1996 72.3835 57.8861 71.2377 58.5206 69.8835C59.1551 68.5294 59.709 67.0521 60.1825 65.4517C60.656 63.8419 61.0253 62.1752 61.2905 60.4517C61.5556 58.7282 61.6882 57.0237 61.6882 55.3381C61.6882 53.0937 61.4562 50.8305 60.9922 48.5483C60.5376 46.2566 59.9126 44.1354 59.1172 42.1847C58.3312 40.2244 57.4458 38.6193 56.4609 37.3693H62.2422C64.1835 39.8977 65.6229 42.6439 66.5604 45.608C67.5073 48.572 67.9808 51.8153 67.9808 55.3381Z" fill="white" fill-opacity="0.1"/>
<path d="M219.914 34.1496L224.914 81.7285L219.207 82.3283L214.206 34.7495L219.914 34.1496ZM234.793 32.5858L239.793 80.1646L234.086 80.7645L229.085 33.1857L234.793 32.5858Z" fill="white" fill-opacity="0.1"/>
<path d="M93.2428 147.185L93.5915 142.197L114.157 134.807L113.756 140.545L99.7126 145.074L99.9176 144.789L99.868 145.498L99.7046 145.187L112.981 151.626L112.58 157.365L93.2428 147.185ZM140.315 150.476L119.75 157.866L120.151 152.128L134.194 147.599L133.989 147.884L134.039 147.175L134.202 147.486L120.926 141.047L121.327 135.308L140.664 145.488L140.315 150.476Z" fill="white" fill-opacity="0.1"/>
<path d="M78.7543 247.822L78.7074 249.392C78.6718 250.647 78.5225 251.906 78.2595 253.168C78.0067 254.439 77.7266 255.593 77.4194 256.63C77.1217 257.666 76.8796 258.481 76.6932 259.073L72.7823 259.346C72.885 258.779 73.0242 257.986 73.1998 256.968C73.376 255.959 73.5295 254.828 73.6602 253.575C73.791 252.322 73.8398 251.052 73.8066 249.763L73.7665 248.171L78.7543 247.822ZM75.4691 237.088C74.5339 237.153 73.7078 236.879 72.9908 236.264C72.2833 235.649 71.8966 234.869 71.8305 233.925C71.7658 232.999 72.0412 232.187 72.6569 231.489C73.2814 230.781 74.0612 230.394 74.9965 230.329C75.9033 230.265 76.72 230.54 77.4464 231.154C78.1721 231.758 78.5673 232.523 78.6321 233.449C78.6763 234.082 78.556 234.669 78.2712 235.211C77.9951 235.743 77.6126 236.178 77.1236 236.516C76.6346 236.854 76.0831 237.045 75.4691 237.088Z" fill="white" fill-opacity="0.1"/>
<path d="M264.645 133.909L264.091 154.278H258.892L258.324 133.909H264.645ZM261.491 163.369C260.554 163.369 259.749 163.038 259.077 162.375C258.404 161.703 258.073 160.898 258.082 159.96C258.073 159.032 258.404 158.237 259.077 157.574C259.749 156.911 260.554 156.58 261.491 156.58C262.391 156.58 263.182 156.911 263.864 157.574C264.545 158.237 264.891 159.032 264.901 159.96C264.891 160.585 264.725 161.158 264.403 161.679C264.091 162.19 263.679 162.602 263.168 162.915C262.656 163.218 262.098 163.369 261.491 163.369Z" fill="white" fill-opacity="0.1"/>
<path d="M192.124 230.931L192.224 228.078C193.861 228.135 195.008 227.848 195.665 227.217C196.322 226.586 196.676 225.542 196.727 224.085L196.836 220.947C196.897 219.197 197.188 217.804 197.707 216.771C198.236 215.728 198.945 214.952 199.835 214.443C200.734 213.934 201.788 213.611 202.996 213.473C204.204 213.335 205.523 213.291 206.952 213.341L206.794 217.856C205.677 217.817 204.82 217.933 204.223 218.206C203.636 218.47 203.228 218.901 202.998 219.5C202.769 220.089 202.639 220.842 202.607 221.76L202.462 225.905C202.437 226.625 202.281 227.306 201.993 227.95C201.705 228.584 201.193 229.139 200.456 229.616C199.72 230.083 198.679 230.44 197.335 230.687C195.99 230.924 194.254 231.005 192.124 230.931ZM205.697 249.271C204.268 249.221 202.955 249.085 201.76 248.864C200.564 248.642 199.536 248.246 198.674 247.676C197.823 247.106 197.169 246.282 196.714 245.205C196.268 244.138 196.076 242.729 196.137 240.978L196.247 237.826C196.298 236.369 196.018 235.303 195.406 234.627C194.795 233.952 193.671 233.586 192.033 233.529L192.133 230.676C194.262 230.75 195.989 230.957 197.313 231.297C198.638 231.628 199.651 232.056 200.353 232.583C201.055 233.1 201.527 233.69 201.769 234.352C202.012 235.005 202.12 235.696 202.095 236.424L201.95 240.57C201.918 241.478 201.996 242.234 202.183 242.838C202.371 243.451 202.748 243.909 203.315 244.213C203.892 244.527 204.738 244.704 205.855 244.743L205.697 249.271ZM192.033 233.529L192.224 228.078L197.32 228.256L197.13 233.707L192.033 233.529ZM222.374 231.732L222.274 234.585C220.646 234.528 219.499 234.815 218.833 235.446C218.176 236.076 217.822 237.121 217.771 238.578L217.661 241.729C217.6 243.48 217.305 244.872 216.776 245.906C216.257 246.949 215.547 247.725 214.648 248.233C213.759 248.742 212.71 249.066 211.502 249.204C210.303 249.342 208.984 249.386 207.546 249.336L207.704 244.807C208.821 244.846 209.673 244.729 210.26 244.456C210.857 244.192 211.27 243.761 211.5 243.163C211.729 242.574 211.859 241.825 211.891 240.917L212.035 236.772C212.061 236.043 212.217 235.361 212.505 234.727C212.793 234.083 213.305 233.528 214.041 233.061C214.778 232.584 215.818 232.228 217.163 231.99C218.507 231.743 220.244 231.657 222.374 231.732ZM208.801 213.406C210.239 213.456 211.551 213.592 212.738 213.813C213.933 214.035 214.957 214.431 215.809 215.001C216.67 215.571 217.324 216.394 217.769 217.471C218.225 218.539 218.422 219.948 218.361 221.699L218.251 224.836C218.2 226.294 218.48 227.36 219.092 228.035C219.713 228.711 220.837 229.077 222.465 229.134L222.365 231.987C220.236 231.913 218.509 231.71 217.184 231.38C215.86 231.04 214.847 230.611 214.145 230.094C213.443 229.567 212.971 228.978 212.728 228.325C212.486 227.662 212.378 226.972 212.403 226.252L212.548 222.107C212.58 221.189 212.502 220.428 212.315 219.825C212.127 219.212 211.746 218.753 211.169 218.449C210.602 218.135 209.76 217.959 208.643 217.92L208.801 213.406ZM222.465 229.134L222.274 234.585L217.178 234.407L217.368 228.956L222.465 229.134Z" fill="white" fill-opacity="0.1"/>
</svg>
